<svg width="34" height="31" viewBox="0 0 34 31" fill="none" xmlns="http://www.w3.org/2000/svg">
<path d="M23.1895 16.3613C23.1895 17.6309 22.9727 18.5742 22.5391 19.1914C22.1055 19.8086 21.4277 20.1172 20.5059 20.1172C19.5957 20.1172 18.9219 19.8164 18.4844 19.2148C18.0469 18.6094 17.8203 17.707 17.8047 16.5078V15.0605C17.8047 13.8066 18.0215 12.875 18.4551 12.2656C18.8887 11.6562 19.5684 11.3516 20.4941 11.3516C21.4121 11.3516 22.0879 11.6465 22.5215 12.2363C22.9551 12.8223 23.1777 13.7285 23.1895 14.9551V16.3613ZM22.1055 14.8789C22.1055 13.9609 21.9766 13.293 21.7188 12.875C21.4609 12.4531 21.0527 12.2422 20.4941 12.2422C19.9395 12.2422 19.5352 12.4512 19.2812 12.8691C19.0273 13.2871 18.8965 13.9297 18.8887 14.7969V16.5312C18.8887 17.4531 19.0215 18.1348 19.2871 18.5762C19.5566 19.0137 19.9629 19.2324 20.5059 19.2324C21.041 19.2324 21.4375 19.0254 21.6953 18.6113C21.957 18.1973 22.0938 17.5449 22.1055 16.6543V14.8789Z" fill="black"/>
<g clip-path="url(#clip0_14501_2)">
<path fill-rule="evenodd" clip-rule="evenodd" d="M8.42963 6.2142L11.5266 21.7802L28.3366 20.7912L31.7276 6.0342H20.0506L8.42963 6.2142ZM11.0356 23.0172C10.7506 23.0172 10.5006 22.8152 10.4446 22.5312L7.13863 5.9112L4.56963 3.2072H0.603634C0.270634 3.2072 -0.000366211 2.9372 -0.000366211 2.6042C-0.000366211 2.2702 0.270634 2.0002 0.603634 2.0002H4.82863C4.99463 2.0002 5.15263 2.0682 5.26663 2.1882L7.95163 5.0142L20.0416 4.8272H32.4856C32.6696 4.8272 32.8436 4.9112 32.9576 5.0552C33.0726 5.1992 33.1156 5.3872 33.0736 5.5662L29.4116 21.5022C29.3516 21.7632 29.1266 21.9542 28.8596 21.9692L11.0726 23.0162C11.0606 23.0172 11.0486 23.0172 11.0356 23.0172Z" fill="#231F20"/>
<path fill-rule="evenodd" clip-rule="evenodd" d="M29.4276 25.4718H11.1166C10.7836 25.4718 10.5126 25.2008 10.5126 24.8678V22.4128C10.5126 22.0798 10.7836 21.8098 11.1166 21.8098C11.4496 21.8098 11.7206 22.0798 11.7206 22.4128V24.2638H29.4276C29.7606 24.2638 30.0316 24.5348 30.0316 24.8678C30.0316 25.2008 29.7606 25.4718 29.4276 25.4718Z" fill="#231F20"/>
<path fill-rule="evenodd" clip-rule="evenodd" d="M14.417 28.2785C14.417 29.5785 13.363 30.6325 12.063 30.6325C10.763 30.6325 9.70898 29.5785 9.70898 28.2785C9.70898 26.9785 10.763 25.9245 12.063 25.9245C13.363 25.9245 14.417 26.9785 14.417 28.2785Z" fill="#231F20"/>
<path fill-rule="evenodd" clip-rule="evenodd" d="M30.2723 28.2785C30.2723 29.5785 29.2183 30.6325 27.9183 30.6325C26.6183 30.6325 25.5643 29.5785 25.5643 28.2785C25.5643 26.9785 26.6183 25.9245 27.9183 25.9245C29.2183 25.9245 30.2723 26.9785 30.2723 28.2785Z" fill="#231F20"/>
</g>
<defs>
<clipPath id="clip0_14501_2">
<rect width="34" height="31" fill="white"/>
</clipPath>
</defs>
</svg>
